<svg width="42" height="41" viewBox="0 0 42 41" fill="none" xmlns="http://www.w3.org/2000/svg">
<path d="M27.6089 11.6893C27.6089 10.767 28.3815 10.0194 29.3345 10.0194C30.2875 10.0194 31.06 10.767 31.06 11.6893C31.06 12.6115 30.2875 13.3592 29.3345 13.3592C28.3815 13.3592 27.6089 12.6115 27.6089 11.6893Z" fill="white"/>
<path fill-rule="evenodd" clip-rule="evenodd" d="M20.7067 12.1067C16.1799 12.1067 12.5103 15.658 12.5103 20.0387C12.5103 24.4195 16.1799 27.9707 20.7067 27.9707C25.2334 27.9707 28.9031 24.4195 28.9031 20.0387C28.9031 15.658 25.2334 12.1067 20.7067 12.1067ZM15.0986 20.0387C15.0986 17.0414 17.6094 14.6116 20.7067 14.6116C23.8039 14.6116 26.3147 17.0414 26.3147 20.0387C26.3147 23.0361 23.8039 25.4659 20.7067 25.4659C17.6094 25.4659 15.0986 23.0361 15.0986 20.0387Z" fill="white"/>
<path fill-rule="evenodd" clip-rule="evenodd" d="M29.7801 4.73084C23.7983 4.08386 17.6151 4.08386 11.6333 4.73084C8.16137 5.10637 5.35849 7.75317 4.9503 11.1306C4.23499 17.0492 4.23499 23.0283 4.9503 28.9469C5.35849 32.3243 8.16137 34.9711 11.6333 35.3466C17.6151 35.9936 23.7983 35.9936 29.7801 35.3466C33.252 34.9711 36.0549 32.3243 36.4631 28.9469C37.1784 23.0283 37.1784 17.0492 36.4631 11.1306C36.0549 7.75317 33.252 5.10637 29.7801 4.73084ZM11.9208 7.22019C17.7115 6.59387 23.7019 6.59387 29.4926 7.22019C31.7878 7.46843 33.6263 9.22118 33.8923 11.4216C34.5842 17.1468 34.5842 22.9306 33.8923 28.6559C33.6263 30.8563 31.7878 32.609 29.4926 32.8573C23.7019 33.4836 17.7115 33.4836 11.9208 32.8573C9.62561 32.609 7.78705 30.8563 7.52111 28.6559C6.82917 22.9306 6.82917 17.1468 7.52111 11.4216C7.78705 9.22118 9.6256 7.46843 11.9208 7.22019Z" fill="white"/>
</svg>
