<svg width="42" height="41" viewBox="0 0 42 41" fill="none" xmlns="http://www.w3.org/2000/svg">
<path fill-rule="evenodd" clip-rule="evenodd" d="M26.4829 5.58324C27.3602 5.43782 28.3426 5.38926 29.267 5.54063C30.9182 5.81095 32.4433 6.5536 33.6489 7.66702C34.4369 7.68427 35.2114 7.53403 35.8967 7.31984C36.4766 7.13857 36.9665 6.9197 37.3098 6.74663C37.4805 6.66058 37.6124 6.58718 37.6981 6.53748C37.7409 6.51267 37.772 6.4939 37.7905 6.48256L37.8069 6.47243C38.3191 6.14225 39.0011 6.20651 39.4374 6.6265C39.8739 7.04659 39.9442 7.70606 39.6055 8.20353C39.2471 8.73004 38.7495 9.66863 38.1921 10.7203C38.1044 10.8856 38.0153 11.0538 37.925 11.2235C37.6053 11.8246 37.2774 12.4322 36.9719 12.9534C36.78 13.2807 36.5748 13.6129 36.3679 13.9001V14.3572C36.381 16.0365 36.182 17.7071 35.7781 19.3322C35.5239 20.3548 35.1887 21.3594 34.7741 22.3369C33.7001 24.8696 32.1154 27.1698 30.1125 29.1031C28.1096 31.0364 25.7287 32.5641 23.1088 33.597C20.4913 34.629 17.6877 35.1463 14.8615 35.1189C10.7645 35.1223 6.75367 33.98 3.31167 31.8293C2.8047 31.5125 2.59125 30.8987 2.79717 30.3498C3.00309 29.8008 3.57372 29.4625 4.17261 29.5342C4.6909 29.5963 5.21273 29.6266 5.73497 29.6249C7.61143 29.6198 9.45215 29.2186 11.1326 28.4627C10.5985 28.2274 10.0885 27.9373 9.61198 27.5953C8.21131 26.5902 7.16923 25.1876 6.63074 23.5826C6.49081 23.1655 6.58647 22.708 6.88294 22.3764C6.88825 22.3704 6.89362 22.3646 6.89903 22.3587C6.58234 22.0855 6.28601 21.7879 6.01321 21.4679C4.78579 20.0281 4.10993 18.2222 4.09995 16.3557L4.09992 16.3493L4.09994 16.2658C4.09994 15.8218 4.34281 15.411 4.73832 15.186C4.83857 15.129 4.94484 15.0861 5.05415 15.0573C4.47034 13.93 4.16674 12.6852 4.16896 11.4223C4.16827 9.99158 4.55444 8.58558 5.28912 7.34401C5.50121 6.98559 5.88226 6.75141 6.30766 6.71805C6.73306 6.6847 7.1481 6.85645 7.41705 7.17715C9.078 9.15766 11.1509 10.7779 13.5011 11.9326C14.7092 12.5261 15.9767 12.9899 17.2809 13.3179C18.0121 13.5018 18.7548 13.643 19.505 13.7406C19.4719 12.5328 19.7184 11.3257 20.2356 10.2104C20.9943 8.57415 22.2927 7.22792 23.9272 6.3828C24.6194 6.02489 25.5383 5.73982 26.4829 5.58324ZM7.02178 18.1868C7.24549 18.7961 7.5783 19.3677 8.00978 19.8739C8.85759 20.8684 10.0343 21.5489 11.3409 21.8005C11.923 21.9125 12.3516 22.3933 12.381 22.9668C12.4104 23.5404 12.0329 24.0598 11.4652 24.227C10.995 24.3655 10.5133 24.462 10.0261 24.5156C10.348 24.9172 10.7268 25.2769 11.1537 25.5833C12.122 26.2782 13.2901 26.6637 14.4954 26.6861C15.0423 26.6963 15.5235 27.0381 15.6975 27.5399C15.8715 28.0418 15.7007 28.5953 15.2708 28.9226C13.4604 30.3011 11.367 31.2624 9.14868 31.7532C10.9872 32.323 12.9155 32.6163 14.8658 32.614L14.8809 32.614C17.3658 32.639 19.8309 32.1846 22.1323 31.2773C24.4336 30.37 26.5251 29.0279 28.2846 27.3296C30.044 25.6313 31.4361 23.6107 32.3796 21.3859C32.7438 20.5272 33.0382 19.6447 33.2615 18.7465C33.6167 17.3175 33.7915 15.8485 33.7796 14.3719L33.7795 14.3621V13.477C33.7795 13.1734 33.8935 12.88 34.1003 12.6516C34.2199 12.5196 34.429 12.2148 34.7206 11.7173C34.9978 11.2445 35.3046 10.6769 35.6236 10.0771C35.6429 10.0409 35.6623 10.0044 35.6818 9.96776C34.8542 10.1417 33.9162 10.2328 32.933 10.13C32.6216 10.0974 32.333 9.95668 32.1206 9.73385C31.2529 8.82319 30.0974 8.21701 28.8353 8.01037C28.2753 7.91869 27.5983 7.93968 26.9199 8.05212C26.1829 8.17429 25.5415 8.38806 25.1469 8.59208C24.018 9.17582 23.1211 10.1057 22.5971 11.2359C22.073 12.366 21.9514 13.6325 22.2513 14.8368C22.3469 15.2207 22.2498 15.6258 21.9893 15.9298C21.7287 16.2338 21.3353 16.401 20.9278 16.3811C19.4724 16.3098 18.0325 16.095 16.6298 15.7422C15.146 15.369 13.7039 14.8414 12.3294 14.1661C10.3057 13.1718 8.46267 11.8741 6.8668 10.325C6.794 10.685 6.75704 11.0524 6.75729 11.4222L6.75729 11.4254C6.75549 12.3451 6.9887 13.2509 7.43615 14.0622C7.8836 14.8735 8.53142 15.5652 9.32192 16.0756C9.80166 16.3853 10.0117 16.9649 9.83699 17.4968C9.66227 18.0287 9.14495 18.3845 8.56844 18.3694C8.0463 18.3556 7.52852 18.2942 7.02178 18.1868Z" fill="white"/>
</svg>
